<svg width="836" height="455" fill="none" xmlns="http://www.w3.org/2000/svg"><g clip-path="url(#clip0)"><path d="M420.342 454.231c226.505 0 410.124-12.156 410.124-27.151s-183.619-27.151-410.124-27.151c-226.505 0-410.123 12.156-410.123 27.151s183.618 27.151 410.123 27.151z" fill="#F2F2F2"/><path d="M404.623 129.848c-66.82 0-114.796 42.87-114.796 142.9 0 113.367 47.976 143.376 114.796 143.376 66.821 0 117.655-32.867 117.655-143.376 0-118.131-50.834-142.9-117.655-142.9zm.44 248.646c-46.282 0-70.461-27.152-70.461-105.673 0-69.283 25.169-105.819 71.45-105.819 46.282 0 71.45 23.999 71.45 105.819 0 76.541-26.158 105.673-72.439 105.673z" fill="#2F2E41"/><path d="M249.815 337.053h-27.628v-81.356a16.292 16.292 0 00-16.292-16.293h-6.474a16.29 16.29 0 00-11.521 4.772 16.305 16.305 0 00-4.772 11.521v81.356h-77.927a9.298 9.298 0 01-7.967-4.5 9.306 9.306 0 01-.257-9.147l82.477-156.103a16.293 16.293 0 00-7.448-22.344l-4.869-2.3a16.295 16.295 0 00-21.326 7.052L45.219 337.888a22.094 22.094 0 0019.484 32.508h118.425v51.444a19.522 19.522 0 005.72 13.81 19.54 19.54 0 0013.81 5.72c2.564 0 5.104-.505 7.473-1.487a19.518 19.518 0 0010.57-10.569 19.54 19.54 0 001.486-7.474v-51.444h27.628a16.668 16.668 0 0016.671-16.671 16.669 16.669 0 00-16.671-16.672zM761.397 337.053H733.77v-81.356a16.296 16.296 0 00-16.293-16.293h-6.474a16.292 16.292 0 00-16.292 16.293v81.356h-77.928a9.298 9.298 0 01-9.297-9.04 9.293 9.293 0 011.073-4.607l82.478-156.103a16.31 16.31 0 001.051-12.764 16.3 16.3 0 00-8.5-9.58l-4.869-2.3a16.296 16.296 0 00-21.326 7.052L556.801 337.888a22.092 22.092 0 0019.484 32.508h118.426v51.444a19.529 19.529 0 0019.529 19.53 19.533 19.533 0 0019.53-19.53v-51.444h27.627a16.67 16.67 0 0016.672-16.671 16.673 16.673 0 00-16.672-16.672z" fill="#242B45"/><path d="M257.436 327.526h-27.627v-81.355a16.303 16.303 0 00-4.772-11.521 16.294 16.294 0 00-11.521-4.772h-6.474a16.292 16.292 0 00-16.293 16.293v81.355h-77.927a9.298 9.298 0 01-7.966-4.5 9.296 9.296 0 01-.258-9.146l82.478-156.104a16.29 16.29 0 00-2.219-18.424 16.281 16.281 0 00-5.23-3.92l-4.869-2.299a16.292 16.292 0 00-21.326 7.052L52.84 328.361a22.097 22.097 0 00-2.61 10.416v0a22.095 22.095 0 0022.094 22.093h118.425v51.444a19.536 19.536 0 0012.056 18.043 19.54 19.54 0 007.474 1.486h0a19.529 19.529 0 0019.53-19.529V360.87h27.627a16.672 16.672 0 0016.672-16.672v0a16.671 16.671 0 00-16.672-16.672v0zM775.687 327.526H748.06v-81.355a16.289 16.289 0 00-16.293-16.293h-6.473a16.284 16.284 0 00-11.521 4.772 16.294 16.294 0 00-4.772 11.521v81.355h-77.928a9.298 9.298 0 01-9.297-9.039 9.299 9.299 0 011.073-4.607l82.478-156.104a16.305 16.305 0 001.051-12.764 16.284 16.284 0 00-8.5-9.58l-4.869-2.299a16.291 16.291 0 00-21.326 7.052L571.091 328.361a22.095 22.095 0 0019.484 32.509h118.426v51.444a19.526 19.526 0 0019.529 19.529v0a19.529 19.529 0 0019.53-19.529V360.87h27.627c2.19 0 4.358-.432 6.38-1.27a16.654 16.654 0 009.023-9.022 16.671 16.671 0 001.269-6.38v0a16.67 16.67 0 00-16.672-16.672v0zM419.866 121.274c-66.82 0-114.796 42.87-114.796 142.9 0 113.367 47.976 143.376 114.796 143.376 66.82 0 117.655-32.867 117.655-143.376-.001-118.131-50.835-142.9-117.655-142.9zm.439 248.646c-46.281 0-70.46-27.152-70.46-105.673 0-69.283 25.169-105.819 71.45-105.819 46.281 0 71.45 23.999 71.45 105.819 0 76.541-26.158 105.673-72.44 105.673v0z" stroke="#3F3D56" stroke-width=".777" stroke-miterlimit="10"/><path d="M782.822 326.194a16.184 16.184 0 0016.138-27.426 16.178 16.178 0 00-13.983-3.608l.405 8.329-3.941-7.138a16.118 16.118 0 00-8.306 9.114 15.858 15.858 0 00-.931 4.377 16.177 16.177 0 0010.618 16.352z" fill="#A7F3D0"/><path d="M802.319 422.791c-1.391-7.083 4.636-13.362 10.59-17.444 5.954-4.082 12.91-8.092 14.942-15.019 2.919-9.954-5.777-19.071-12.546-26.933a97.375 97.375 0 01-12.846-19.093c-1.409-2.746-2.703-5.618-3.073-8.682-.534-4.412.884-8.803 2.312-13.012a940.86 940.86 0 0115.261-41.712M783.488 324.049a16.166 16.166 0 007.367.869 16.169 16.169 0 0012.108-7.87 16.171 16.171 0 001-14.406 16.179 16.179 0 00-18.32-9.626l.405 8.328-3.94-7.137a16.12 16.12 0 00-8.307 9.114 15.849 15.849 0 00-.93 4.377 16.179 16.179 0 0010.617 16.351v0z" stroke="#3F3D56" stroke-width=".777" stroke-miterlimit="10"/><path d="M800.341 278.02a16.164 16.164 0 0111.647-10.261l1.332 7.917 2.47-8.315a16.179 16.179 0 11-10.127 28.984 16.176 16.176 0 01-5.322-18.325z" fill="#A7F3D0"/><path d="M801.23 275.161a16.157 16.157 0 0111.647-10.261l1.332 7.917 2.47-8.315a16.176 16.176 0 0115.034 21.514 16.18 16.18 0 01-30.812-.825 16.18 16.18 0 01.329-10.03h0z" stroke="#3F3D56" stroke-width=".777" stroke-miterlimit="10"/><path d="M812.465 363.555a16.182 16.182 0 0021.124-19.477 16.18 16.18 0 00-6.804-9.307l-1.897 6.39-1.346-8.011a16.16 16.16 0 00-12.418.533 16.175 16.175 0 00-7.805 21.517 16.183 16.183 0 009.146 8.355z" fill="#A7F3D0"/><path d="M813.235 360.66a16.183 16.183 0 0020.003-8.003 16.18 16.18 0 00-5.683-20.782l-1.898 6.39-1.345-8.011a16.179 16.179 0 00-16.482 27.138 16.186 16.186 0 005.405 3.268h0z" stroke="#3F3D56" stroke-width=".777" stroke-miterlimit="10"/><path d="M795.619 390.427a16.17 16.17 0 005.323 9.41 16.168 16.168 0 0020.366.686 16.17 16.17 0 004.87-19.788 16.173 16.173 0 00-27.441-2.979l7.21 10.851-9.851-5.759a16.032 16.032 0 00-.477 7.579z" fill="#A7F3D0"/><path d="M796.286 388.283a16.171 16.171 0 1022.947-17.369 16.167 16.167 0 00-19.829 4.698l7.209 10.851-9.851-5.759a16.031 16.031 0 00-.476 7.579v0z" stroke="#3F3D56" stroke-width=".777" stroke-miterlimit="10"/><path d="M7.003 365.611a10.626 10.626 0 009.427-1.077 10.631 10.631 0 00-8.011-19.312l.266 5.472-2.589-4.69a10.592 10.592 0 00-5.457 5.989 10.632 10.632 0 006.364 13.618z" fill="#A7F3D0"/><path d="M19.813 429.078c-.914-4.654 3.046-8.78 6.958-11.461 3.912-2.682 8.482-5.317 9.817-9.868 1.918-6.54-3.796-12.53-8.242-17.696a63.999 63.999 0 01-8.441-12.544 17.271 17.271 0 01-2.019-5.704c-.35-2.899.58-5.784 1.52-8.549a617.976 617.976 0 0110.026-27.406M7.441 364.203a10.64 10.64 0 009.427-1.078 10.638 10.638 0 004.811-8.178 10.635 10.635 0 00-3.635-8.764 10.633 10.633 0 00-9.187-2.37l.266 5.472-2.589-4.689a10.587 10.587 0 00-5.457 5.988 10.63 10.63 0 006.364 13.619v0z" stroke="#3F3D56" stroke-width=".777" stroke-miterlimit="10"/><path d="M18.514 333.96a10.62 10.62 0 017.652-6.741l.875 5.202 1.623-5.464A10.626 10.626 0 0138.68 334.5a10.628 10.628 0 01-10.457 13.712 10.63 10.63 0 01-9.708-14.252z" fill="#A7F3D0"/><path d="M19.098 332.082a10.617 10.617 0 017.652-6.742l.875 5.202 1.623-5.463a10.632 10.632 0 0110.015 7.543 10.628 10.628 0 01-10.457 13.712 10.63 10.63 0 01-9.708-14.252v0z" stroke="#3F3D56" stroke-width=".777" stroke-miterlimit="10"/><path d="M26.48 390.159a10.63 10.63 0 009.408-18.912l-1.247 4.198-.884-5.263a10.611 10.611 0 00-4.129-.64 10.642 10.642 0 00-7.375 3.445 10.635 10.635 0 00-1.784 11.682 10.631 10.631 0 006.01 5.49z" fill="#A7F3D0"/><path d="M26.985 388.256a10.633 10.633 0 0013.879-12.797 10.632 10.632 0 00-4.47-6.115l-1.247 4.199-.884-5.264a10.64 10.64 0 00-8.155.354 10.63 10.63 0 00.877 19.623v0z" stroke="#3F3D56" stroke-width=".777" stroke-miterlimit="10"/><path d="M15.411 407.814a10.628 10.628 0 0010.108 8.781 10.623 10.623 0 0010.676-8.081 10.627 10.627 0 00-18.735-9.025l4.737 7.13-6.472-3.785a10.533 10.533 0 00-.314 4.98z" fill="#A7F3D0"/><path d="M15.85 406.405a10.628 10.628 0 0016.877 6.634 10.63 10.63 0 003.2-13.002 10.626 10.626 0 00-18.03-1.957l4.738 7.13-6.473-3.784a10.528 10.528 0 00-.313 4.979v0z" stroke="#3F3D56" stroke-width=".777" stroke-miterlimit="10"/><path d="M373.928 265.212c7.3 0 13.218-7.658 13.218-17.104 0-9.447-5.918-17.105-13.218-17.105-7.299 0-13.217 7.658-13.217 17.105 0 9.446 5.918 17.104 13.217 17.104zM445.846 265.601c7.3 0 13.217-7.658 13.217-17.105 0-9.446-5.917-17.104-13.217-17.104-7.3 0-13.217 7.658-13.217 17.104 0 9.447 5.917 17.105 13.217 17.105zM435.739 299.033c0 7.728-10.792 13.995-24.103 13.995-13.31 0-24.102-6.267-24.102-13.995 0-6.694 8.094-12.292 18.909-13.661a39.047 39.047 0 015.193-.334 39.467 39.467 0 018.654.933c9.034 2.014 15.449 7.106 15.449 13.062z" fill="#2F2E41"/><path d="M377.038 261.325c7.3 0 13.218-7.658 13.218-17.105 0-9.446-5.918-17.104-13.218-17.104-7.299 0-13.217 7.658-13.217 17.104 0 9.447 5.918 17.105 13.217 17.105zM448.956 261.714c7.299 0 13.217-7.658 13.217-17.105s-5.918-17.105-13.217-17.105c-7.3 0-13.218 7.658-13.218 17.105s5.918 17.105 13.218 17.105zM414.746 309.14c13.312 0 24.102-6.265 24.102-13.995 0-7.729-10.79-13.994-24.102-13.994-13.311 0-24.102 6.265-24.102 13.994 0 7.73 10.791 13.995 24.102 13.995z" stroke="#3F3D56" stroke-width=".777" stroke-miterlimit="10"/><path d="M420.578 287.137a3.84 3.84 0 01-1.027 2.638 3.383 3.383 0 01-1.121.806 3.382 3.382 0 01-1.351.288h-7.775a3.626 3.626 0 01-3.499-3.732 3.81 3.81 0 01.638-2.131 36.673 36.673 0 015.193-.357 37.078 37.078 0 018.654.996c.192.474.289.981.288 1.492zM377.038 243.443a3.888 3.888 0 100-7.777 3.888 3.888 0 000 7.777zM449.344 243.443a3.888 3.888 0 100-7.777 3.888 3.888 0 000 7.777z" fill="#fff"/><path opacity=".3" d="M453.232 279.985a3.888 3.888 0 10-.001-7.775 3.888 3.888 0 00.001 7.775zM358.379 279.985a3.888 3.888 0 10-.001-7.775 3.888 3.888 0 00.001 7.775z" fill="#242B45"/></g><defs><clipPath id="clip0"><path fill="#fff" d="M0 0h835.324v454.231H0z"/></clipPath></defs></svg>