<svg width="242" height="44" fill="none" xmlns="http://www.w3.org/2000/svg"><path d="M14.552 35.432c-2.528 0-4.88-.288-7.056-.864-2.176-.608-3.952-1.456-5.328-2.544-.48-.352-.832-.72-1.056-1.104-.192-.416-.288-.928-.288-1.536 0-.8.24-1.504.72-2.112.512-.608 1.088-.912 1.728-.912.352 0 .688.064 1.008.192.352.096.768.288 1.248.576 1.376.864 2.768 1.504 4.176 1.92 1.408.384 2.96.576 4.656.576 2.112 0 3.728-.352 4.848-1.056 1.12-.704 1.68-1.712 1.68-3.024 0-.992-.528-1.792-1.584-2.4-1.024-.608-2.864-1.184-5.52-1.728-2.976-.608-5.36-1.344-7.152-2.208-1.76-.864-3.056-1.936-3.888-3.216-.8-1.28-1.2-2.832-1.2-4.656 0-2.016.576-3.824 1.728-5.424C4.456 4.28 6.072 3.016 8.12 2.12 10.2 1.192 12.536.728 15.128.728c4.544 0 8.288 1.136 11.232 3.408.48.384.816.784 1.008 1.2.224.384.336.864.336 1.44 0 .8-.256 1.504-.768 2.112-.48.608-1.04.912-1.68.912a3.49 3.49 0 01-1.008-.144c-.288-.096-.704-.304-1.248-.624-1.312-.832-2.528-1.456-3.648-1.872-1.088-.416-2.48-.624-4.176-.624-1.952 0-3.488.384-4.608 1.152-1.12.736-1.68 1.76-1.68 3.072 0 .768.208 1.408.624 1.92.448.48 1.168.912 2.16 1.296 1.024.384 2.464.784 4.32 1.2 4.352.96 7.472 2.192 9.36 3.696 1.92 1.504 2.88 3.568 2.88 6.192 0 2.048-.576 3.856-1.728 5.424-1.12 1.568-2.72 2.784-4.8 3.648-2.048.864-4.432 1.296-7.152 1.296zm47.874 3.408c.448.704.672 1.392.672 2.064 0 .864-.368 1.584-1.104 2.16-.704.576-1.536.864-2.496.864-.672 0-1.312-.16-1.92-.48a3.635 3.635 0 01-1.392-1.392l-2.88-4.8c-.384-.64-.896-1.104-1.536-1.392-.64-.288-1.504-.432-2.592-.432-3.36 0-6.288-.704-8.784-2.112-2.464-1.44-4.368-3.456-5.712-6.048-1.344-2.624-2.016-5.696-2.016-9.216 0-3.52.672-6.576 2.016-9.168 1.344-2.624 3.248-4.64 5.712-6.048C42.89 1.432 45.818.728 49.178.728c3.36 0 6.272.704 8.736 2.112 2.496 1.408 4.416 3.424 5.76 6.048 1.344 2.592 2.016 5.648 2.016 9.168 0 3.68-.736 6.864-2.208 9.552-1.44 2.656-3.504 4.64-6.192 5.952 1.568.48 2.832 1.504 3.792 3.072l1.344 2.208zm-13.248-9.216c2.816 0 5.024-.992 6.624-2.976 1.632-1.984 2.448-4.848 2.448-8.592 0-3.744-.8-6.592-2.4-8.544-1.6-1.984-3.824-2.976-6.672-2.976s-5.072.992-6.672 2.976c-1.568 1.952-2.352 4.8-2.352 8.544 0 3.744.8 6.608 2.4 8.592 1.6 1.984 3.808 2.976 6.624 2.976zM74.91 35c-1.12 0-1.984-.304-2.592-.912-.608-.608-.912-1.472-.912-2.592V4.616c0-1.12.336-2.016 1.008-2.688C73.087 1.256 73.999.92 75.15.92c1.152 0 2.064.336 2.736 1.008.672.672 1.008 1.568 1.008 2.688v24.288h12.288c2.336 0 3.504 1.024 3.504 3.072 0 2.016-1.168 3.024-3.504 3.024H74.91zm58.693-17.52c1.952.576 3.456 1.584 4.512 3.024 1.088 1.408 1.632 3.152 1.632 5.232 0 2.848-1.056 5.104-3.168 6.768-2.08 1.664-4.96 2.496-8.64 2.496h-12.576c-1.12 0-1.984-.304-2.592-.912-.608-.608-.912-1.472-.912-2.592V4.664c0-1.12.304-1.984.912-2.592.608-.608 1.472-.912 2.592-.912h12.096c3.52 0 6.304.784 8.352 2.352 2.08 1.568 3.12 3.712 3.12 6.432 0 1.76-.48 3.312-1.44 4.656-.928 1.312-2.224 2.272-3.888 2.88zm-14.448-2.544h7.056c1.92 0 3.328-.32 4.224-.96.928-.672 1.392-1.68 1.392-3.024 0-1.408-.464-2.432-1.392-3.072-.896-.672-2.304-1.008-4.224-1.008h-7.056v8.064zm7.92 14.352c1.984 0 3.424-.336 4.32-1.008.896-.672 1.344-1.76 1.344-3.264 0-1.504-.448-2.608-1.344-3.312-.896-.704-2.336-1.056-4.32-1.056h-7.92v8.64h7.92zm28.63 6.096c-2.496 0-4.688-.496-6.576-1.488-1.888-1.024-3.344-2.448-4.368-4.272-1.024-1.856-1.536-4.032-1.536-6.528 0-2.496.512-4.656 1.536-6.48a10.413 10.413 0 014.368-4.272c1.888-.992 4.08-1.488 6.576-1.488 2.496 0 4.688.496 6.576 1.488a10.413 10.413 0 014.368 4.272c1.024 1.824 1.536 3.984 1.536 6.48 0 2.496-.512 4.672-1.536 6.528-1.024 1.824-2.48 3.248-4.368 4.272-1.888.992-4.08 1.488-6.576 1.488zm0-5.52c3.52 0 5.28-2.256 5.28-6.768 0-2.272-.464-3.968-1.392-5.088-.896-1.12-2.192-1.68-3.888-1.68-3.52 0-5.28 2.256-5.28 6.768 0 4.512 1.76 6.768 5.28 6.768zm27.499-19.008c3.456 0 6.016.848 7.68 2.544 1.664 1.664 2.496 4.224 2.496 7.68v10.848c0 1.056-.304 1.888-.912 2.496-.608.576-1.456.864-2.544.864-1.024 0-1.856-.304-2.496-.912-.608-.64-.912-1.456-.912-2.448v-.336c-.48 1.184-1.28 2.112-2.4 2.784-1.12.672-2.432 1.008-3.936 1.008-1.6 0-3.056-.32-4.369-.96-1.279-.64-2.303-1.536-3.071-2.688-.736-1.152-1.104-2.432-1.104-3.84 0-1.728.432-3.088 1.296-4.08.896-.992 2.32-1.712 4.272-2.16 1.952-.448 4.624-.672 8.016-.672h1.248v-.864c0-1.344-.304-2.32-.912-2.928-.576-.608-1.552-.912-2.928-.912s-3.36.48-5.952 1.44c-.736.352-1.36.528-1.872.528-.704 0-1.264-.24-1.68-.72-.416-.512-.624-1.168-.624-1.968 0-.64.144-1.168.432-1.584.288-.416.752-.8 1.392-1.152 1.12-.608 2.48-1.088 4.08-1.44a22.727 22.727 0 014.8-.528zm-1.44 19.536c1.408 0 2.544-.464 3.408-1.392.864-.96 1.296-2.192 1.296-3.696v-.816h-.816c-2.592 0-4.416.208-5.472.624-1.024.416-1.536 1.168-1.536 2.256 0 .896.288 1.632.864 2.208.608.544 1.36.816 2.256.816zm31.099-19.44c.96-.064 1.712.16 2.256.672.576.48.864 1.216.864 2.208 0 1.056-.256 1.84-.768 2.352-.512.512-1.424.832-2.736.96l-1.44.144c-1.76.192-3.04.768-3.84 1.728-.768.96-1.152 2.192-1.152 3.696v9.168c0 1.12-.352 1.968-1.056 2.544-.672.576-1.52.864-2.544.864-1.056 0-1.936-.288-2.64-.864-.672-.576-1.008-1.424-1.008-2.544V14.264c0-1.056.352-1.872 1.056-2.448.704-.576 1.552-.864 2.544-.864.96 0 1.76.288 2.4.864.64.544.96 1.312.96 2.304v1.296c.576-1.376 1.44-2.432 2.592-3.168a8.26 8.26 0 013.84-1.248l.672-.048zM237.709.92c1.12 0 2.016.304 2.688.912.704.608 1.056 1.408 1.056 2.4V31.88c0 1.024-.336 1.856-1.008 2.496-.64.608-1.504.912-2.592.912s-1.968-.304-2.64-.912c-.64-.64-.96-1.472-.96-2.496v-.384c-.704 1.216-1.712 2.176-3.024 2.88-1.28.672-2.736 1.008-4.368 1.008-2.016 0-3.824-.512-5.424-1.536-1.568-1.056-2.8-2.512-3.696-4.368-.864-1.888-1.296-4.048-1.296-6.48 0-2.432.432-4.56 1.296-6.384.896-1.856 2.128-3.28 3.696-4.272 1.568-.992 3.376-1.488 5.424-1.488 1.6 0 3.04.336 4.32 1.008 1.312.672 2.32 1.616 3.024 2.832V4.088c0-.96.32-1.728.96-2.304.64-.576 1.488-.864 2.544-.864zm-8.736 28.944c1.696 0 2.992-.576 3.888-1.728.928-1.184 1.392-2.864 1.392-5.04s-.464-3.84-1.392-4.992c-.896-1.152-2.192-1.728-3.888-1.728-1.696 0-3.008.576-3.936 1.728-.928 1.12-1.392 2.752-1.392 4.896 0 2.176.464 3.872 1.392 5.088.928 1.184 2.24 1.776 3.936 1.776z" fill="url(#paint0_linear)"/><defs><linearGradient id="paint0_linear" x1="245" y1="-13" x2="-2.205" y2="27.676" gradientUnits="userSpaceOnUse"><stop stop-color="#6EE7B7"/><stop offset="1" stop-color="#BFDBFE"/></linearGradient></defs></svg>